# xmcd
#
# Track frame offsets: 
#        182
#        18247
#        36745
#        53995
#        79297
#        102305
#        117802
#        135850
#        153252
#        169750
#
# Disc length: 2560 seconds
#
# Revision: 2
# Processed by: cddbd v1.5.2PL0 Copyright (c) Steve Scherf et al.
# Submitted via: ExactAudioCopyFreeDBPlugin 1.0
#
DISCID=7a09fe0a
DTITLE=Average White Band - Pick Up The Pieces - And Other Hits
DYEAR=1997
DGENRE=R&B
TTITLE0=Pick Up The Pieces
TTITLE1=Queen Of My Soul
TTITLE2=Get It Up (With Ben E. King)
TTITLE3=A Love Of Your Own
TTITLE4=If I Ever Lose This Heaven
TTITLE5=Cloudy
TTITLE6=Walk On By
TTITLE7=A Star In The Ghetto (With Ben E. King)
TTITLE8=Your Love Is A Miracle
TTITLE9=School Boy Crush
EXTD=
EXTT0=
EXTT1=
EXTT2=
EXTT3=
EXTT4=
EXTT5=
EXTT6=
EXTT7=
EXTT8=
EXTT9=
PLAYORDER=
